HIERARCHY
ROOT Hips
{
  OFFSET 0 103.511 0
  CHANNELS 6 Xposition Yposition Zposition Zrotation Xrotation Yrotation
  JOINT RightUpLeg
  {
    OFFSET -10.7813 -3.44521 -0.550249
    CHANNELS 3 Zrotation Xrotation Yrotation
    JOINT RightLeg
    {
      OFFSET -0.804744 -44.0398 -0.130783
      CHANNELS 3 Zrotation Xrotation Yrotation
      JOINT RightFoot
      {
        OFFSET 3.00622 -47.8352 -5
        CHANNELS 3 Zrotation Xrotation Yrotation
        End Site
        {
          OFFSET 0 -5 15
        }
      }
    }
  }
  JOINT LeftUpLeg
  {
    OFFSET 10.7813 -3.44521 -0.550249
    CHANNELS 3 Zrotation Xrotation Yrotation
    JOINT LeftLeg
    {
      OFFSET 0.804744 -44.0398 -0.130783
      CHANNELS 3 Zrotation Xrotation Yrotation
      JOINT LeftFoot
      {
        OFFSET -4.37014 -48.1032 -4.27527
        CHANNELS 3 Zrotation Xrotation Yrotation
        End Site
        {
          OFFSET 0 -5 15
        }
      }
    }
  }
  JOINT Spine
  {
    OFFSET 0 6.4689 -3.12924
    CHANNELS 3 Zrotation Xrotation Yrotation
    JOINT Spine1
    {
      OFFSET 0 23.154 4.99043
      CHANNELS 3 Zrotation Xrotation Yrotation
      JOINT Neck
      {
        OFFSET 0 20.8 -5.06491
        CHANNELS 3 Zrotation Xrotation Yrotation
        JOINT Head
        {
          OFFSET 0 14.3866 9.61618
          CHANNELS 3 Zrotation Xrotation Yrotation
          End Site
          {
            OFFSET 0 20 0
          }
        }
      }
      JOINT RightShoulder
      {
        OFFSET -5.72262 16.3508 3.96775
        CHANNELS 3 Zrotation Xrotation Yrotation
        JOINT RightArm
        {
          OFFSET -13.1636 1.69448 -4.69321
          CHANNELS 3 Zrotation Xrotation Yrotation
          JOINT RightForeArm
          {
            OFFSET -28.5034 -0.310069 -2.79274
            CHANNELS 3 Zrotation Xrotation Yrotation
            JOINT RightHand
            {
              OFFSET -25.1569 0.0224898 -1.27198
              CHANNELS 3 Zrotation Xrotation Yrotation
              End Site
              {
                OFFSET -15 0 0
              }
            }
          }
        }
      }
      JOINT LeftShoulder
      {
        OFFSET 5.72262 16.3508 3.96775
        CHANNELS 3 Zrotation Xrotation Yrotation
        JOINT LeftArm
        {
          OFFSET 13.1636 1.69448 -4.69321
          CHANNELS 3 Zrotation Xrotation Yrotation
          JOINT LeftForeArm
          {
            OFFSET 29.3917 -1.06312 -2.23705
            CHANNELS 3 Zrotation Xrotation Yrotation
            JOINT LeftHand
            {
              OFFSET 24.5996 -0.952848 0.90475
              CHANNELS 3 Zrotation Xrotation Yrotation
              End Site
              {
                OFFSET 15 -0 -0
              }
            }
          }
        }
      }
    }
  }
}
MOTION
Frames:	18
Frame Time:	0.0416667
11.9233 101.528 259.836 -0.163333 -7.14728 -6.3883 1.27004 17.0103 5.91169 0.0001882 21.539 1.53317e-005 6.89071 -14.2253 -0.670387 2.12252 -24.8753 -3.75761 -0.0058413 24.3966 4.71924e-006 -8.58324 -7.70967 17.1706 -0.304014 0.958103 8.70099 -1.08927 10.67 -3.05991 1.57919 -8.05908 3.22095 -3.07501 12.6165 5.08908 3.19447 -22.8027 11.4699 76.5325 21.4557 1.88249 2.93625e-005 5.75334e-007 28.8174 -6.43396 22.4392 1.909 2.38328 -14.7834 -3.32952 -91.2361 20.9964 23.9452 -9.60216e-006 -3.21411e-006 -11.2382 -0.212349 11.1314 -3.29995 
12.8624 100.755 267.504 0.440167 -7.52382 -6.62356 -0.603869 18.7089 5.94242 0.000185447 26.4823 1.59329e-005 8.28918 -12.0501 -0.822226 1.061 -24.675 -4.91604 -0.00258562 23.9015 4.701e-006 -8.53059 -7.31644 16.5049 -1.02118 0.201931 8.82754 -1.28283 10.3137 -2.98726 1.75039 -8.00013 3.10954 -3.28638 12.6804 5.3179 3.15591 -21.8872 11.234 77.1082 21.5088 1.38459 2.93721e-005 5.80524e-007 27.8634 -6.38028 22.3142 1.67385 2.14345 -13.7573 -3.56052 -91.3924 21.317 24.1435 -9.53665e-006 -3.22643e-006 -10.0727 -0.640241 11.1666 -2.75824 
13.5768 100.895 274.392 0.91153 -7.1388 -6.99208 -2.56372 19.4352 5.26483 0.000176245 32.0044 1.68172e-005 9.62316 -8.87854 -1.6015 -0.644613 -22.6004 -5.87444 0.00250413 24.9773 4.74128e-006 -8.35389 -7.52495 16.024 -1.90163 -0.38129 8.99748 -1.27462 9.79848 -2.70439 1.91094 -7.7148 2.97452 -3.43478 12.9136 5.49923 3.50421 -20.8002 11.1415 77.967 21.7908 0.172482 2.93949e-005 5.92041e-007 25.6303 -6.04956 22.1849 1.01187 2.08249 -13.3992 -3.66817 -90.9401 21.7355 23.3951 -9.52166e-006 -3.22906e-006 -9.80672 -0.828988 11.331 -2.53519 
14.4583 101.593 281.908 1.8043 -8.34671 -5.20923 -2.6055 16.2511 4.99805 0.000163067 42.6405 1.93865e-005 10.6113 -5.21095 -3.89352 -3.12229 -18.161 -6.93421 -0.000777601 26.0858 4.7853e-006 -7.76098 -8.88026 15.3557 -2.68213 -0.330727 8.34158 -1.32873 9.90027 -2.76567 1.94409 -7.02527 2.86727 -3.59301 13.3934 5.60175 3.81247 -19.4314 10.8596 78.9896 22.2592 -1.77259 2.94276e-005 6.06625e-007 22.51 -5.50786 22.0944 0.118674 2.06008 -13.4062 -3.63872 -90.0115 22.1902 21.9604 -9.53959e-006 -3.22591e-006 -10.125 -0.748159 11.6004 -2.58975 
15.1955 102.639 288.283 1.9837 -8.96352 -4.10183 -2.63262 12.2355 4.15775 0.000147298 52.4309 2.33897e-005 10.9692 -3.52923 -6.67328 -4.47084 -13.2258 -7.60526 -0.00192673 25.7618 4.77217e-006 -7.11313 -10.5627 14.8336 -3.00179 0.242522 7.38267 -1.23105 9.78896 -2.81957 1.94481 -6.42482 2.87918 -3.83786 13.8587 5.7849 4.30256 -18.2408 10.9813 80.2106 22.9389 -3.81104 2.94637e-005 6.20362e-007 19.1377 -4.65737 22.0378 -0.969628 1.99713 -13.9834 -3.79504 -88.5317 22.6605 19.6687 -9.58691e-006 -3.2171e-006 -10.9666 -0.411404 11.9451 -2.93864 
15.7753 104.152 294.424 1.88171 -10.2058 -2.90573 -1.60587 5.01137 3.33034 0.000131397 58.0136 2.69221e-005 10.5194 -4.51895 -7.93576 -5.06396 -7.43135 -7.90538 -0.00319254 24.5352 4.72444e-006 -6.71721 -11.8553 14.3454 -3.12737 1.40871 5.99498 -0.955524 9.89682 -3.1731 1.92355 -5.7728 3.00936 -4.16425 14.3843 6.06191 4.70548 -17.0536 11.0859 81.7429 23.6537 -6.04152 2.94977e-005 6.31135e-007 16.0256 -3.58868 21.992 -2.08535 2.03127 -14.7161 -4.09153 -86.8375 23.0561 16.8772 -9.65427e-006 -3.20331e-006 -12.1687 0.109044 12.3535 -3.51177 
16.4141 105.717 300.426 1.84045 -10.6282 -1.38974 -0.163057 -1.76804 2.82295 0.000117427 59.4031 2.80182e-005 9.54768 -5.24102 -8.66458 -5.36519 -2.03656 -8.11858 -0.00396434 22.4183 4.64922e-006 -6.56938 -12.7686 13.7274 -3.14424 1.94587 4.42413 -0.638282 9.70472 -3.92283 1.98822 -5.17989 3.18503 -4.49552 14.9518 6.45163 4.5029 -15.8679 10.7883 83.5453 24.2193 -8.3484 2.9521e-005 6.37369e-007 13.9201 -2.63693 21.973 -2.83156 2.404 -15.3551 -4.35182 -85.229 23.3287 13.8453 -9.74841e-006 -3.18155e-006 -13.8582 0.787193 12.8486 -4.36022 
16.8364 106.781 305.178 1.50871 -10.33 -0.785303 0.101981 -7.81185 2.05196 0.000107294 55.3586 2.50882e-005 8.1599 -5.83233 -8.77029 -4.94584 2.27007 -8.42621 -0.0043128 19.6686 4.56415e-006 -6.49288 -13.7722 12.924 -3.01984 2.39892 3.34118 -0.253031 9.15794 -4.61008 2.05218 -4.52379 3.3168 -4.75937 15.6786 6.79436 3.97572 -15.0551 10.2078 84.9272 24.6044 -10.3249 2.95373e-005 6.41186e-007 12.4605 -1.78131 21.8741 -3.40938 3.05201 -16.1697 -4.39499 -83.5669 23.5098 10.5755 -9.86744e-006 -3.1498e-006 -16.0123 1.58329 13.3921 -5.52822 
17.3147 107.222 310.493 1.51245 -9.6635 0.33299 0.0577179 -12.9033 1.66626 9.77509e-005 47.9553 2.12944e-005 6.61659 -6.1121 -9.03669 -4.77705 6.25428 -8.58362 -0.00430865 17.1202 4.49713e-006 -6.42153 -14.9575 12.0549 -3.15126 2.34215 2.28463 0.145419 8.49613 -5.60015 2.19792 -4.14512 3.29124 -4.8626 16.2274 7.02868 3.12599 -13.9494 9.33021 86.1106 24.7552 -12.5716 2.9551e-005 6.44055e-007 11.2415 -1.03781 21.6604 -3.92082 3.89671 -16.898 -4.4023 -81.9932 23.642 7.36865 -9.99956e-006 -3.10885e-006 -18.431 2.45962 14.0137 -6.93699 
17.6758 106.858 315.994 1.95138 -8.8122 1.7738 -0.452622 -16.9318 1.59828 8.70768e-005 38.9255 1.83313e-005 5.03442 -6.17106 -9.51675 -4.90625 9.72468 -8.6494 -0.00402255 15.2655 4.45505e-006 -6.28627 -16.3785 11.1656 -3.63484 1.93784 1.49529 0.460206 7.95561 -6.50302 2.33729 -3.92871 3.12643 -4.81001 16.6715 7.09196 2.21274 -12.612 8.45405 87.081 24.7618 -14.901 2.95657e-005 6.46809e-007 9.93377 -0.315509 21.338 -4.55806 4.8729 -17.534 -4.2792 -80.6845 23.6998 4.35618 -1.01347e-005 -3.06052e-006 -20.94 3.3836 14.6536 -8.42443 
17.9124 105.844 321.246 2.57027 -8.04825 2.91899 -1.32919 -21.1767 1.04357 7.52471e-005 29.1006 1.63214e-005 3.37049 -6.38799 -10.2861 -5.24052 12.8001 -8.43006 -0.00352515 14.2093 4.4335e-006 -6.12485 -17.8676 10.3279 -4.26992 1.92483 1.18117 0.69701 7.41463 -6.97305 2.43452 -3.86491 2.88112 -4.64425 17.0149 7.0003 1.54867 -11.4654 7.98796 87.7774 24.766 -16.8073 2.95805e-005 6.49225e-007 8.6262 0.432488 20.9881 -5.31224 5.88755 -18.317 -4.08673 -79.5026 23.6812 1.56371 -1.02577e-005 -3.01054e-006 -23.2627 4.36704 15.2856 -9.90756 
17.9779 104.567 326.661 2.94366 -7.22556 3.5231 -1.80472 -23.6102 0.482485 6.21656e-005 20.4974 1.5225e-005 1.50796 -7.3303 -10.4784 -5.47633 15.0075 -8.16266 -0.00288712 14.2463 4.43422e-006 -6.01631 -19.1722 9.74865 -4.77698 2.20765 1.00957 0.952884 6.98286 -7.18797 2.47458 -3.75256 2.55664 -4.36656 17.3074 6.74682 1.2865 -10.5314 7.95157 88.1671 24.8313 -18.2029 2.95956e-005 6.51332e-007 7.29908 1.3109 20.6471 -6.22971 6.68774 -19.2269 -3.8613 -78.4938 23.5916 -0.752604 -1.0348e-005 -2.97013e-006 -24.9912 5.29904 15.8964 -11.253 
18.0145 103.132 332.333 3.13778 -6.79088 3.50772 -0.998176 -25.3244 -0.544819 4.78663e-005 15.0123 1.4765e-005 -0.196849 -8.39497 -11.2549 -5.76094 17.2596 -7.76217 -0.00217915 16.0547 4.47228e-006 -6.08899 -19.997 9.48182 -4.97605 2.2833 1.24047 1.00523 6.25083 -6.75765 2.7273 -4.01974 2.33688 -4.16203 17.0922 6.74835 1.31127 -9.36863 8.62286 88.5149 24.9118 -19.1577 2.96081e-005 6.52813e-007 6.1998 2.33802 20.3564 -7.19837 6.86533 -20.012 -3.87553 -77.9342 23.5579 -2.23867 -1.03779e-005 -2.956e-006 -25.5697 6.04609 16.463 -12.2726 
17.7818 102.14 338.568 2.72584 -6.55743 4.17515 -0.0661113 -25.201 -0.282685 3.19815e-005 15.4672 1.4797e-005 -1.60158 -8.43132 -12.0233 -4.8293 18.9972 -7.9553 -0.00147187 19.4033 4.55666e-006 -6.41591 -19.6889 9.37754 -4.36919 2.18139 1.3315 1.28235 6.12331 -6.1142 2.7923 -3.88608 2.09173 -3.8864 17.0778 6.5391 1.84953 -8.25539 9.61832 88.7069 25.0087 -19.6025 2.96162e-005 6.53644e-007 5.48721 3.5002 20.1034 -8.1675 6.5075 -20.32 -4.08226 -78.0296 23.729 -3.01621 -1.0349e-005 -2.96962e-006 -25.0123 6.47948 17.0082 -12.8841 
17.5042 101.572 345.59 2.06739 -6.56921 5.15038 1.72276 -23.4218 1.15717 1.53765e-005 19.291 1.51095e-005 -2.61697 -7.68016 -12.1403 -3.48728 20.0701 -8.36898 -0.000835982 24.7158 4.73127e-006 -6.95135 -17.8688 9.75793 -3.4957 1.47138 0.749122 1.41872 6.22574 -6.06814 2.76762 -3.5695 1.86143 -3.55576 17.2512 6.231 2.10138 -7.26076 9.99044 88.7527 25.0349 -19.7389 2.96184e-005 6.53856e-007 5.29074 4.21647 19.8936 -8.64624 6.14353 -19.9064 -4.05881 -78.7968 24.0882 -2.37374 -1.02481e-005 -3.01468e-006 -23.0788 6.55447 17.5174 -12.975 
17.1174 101.842 352.89 0.904078 -7.1865 5.60048 3.12495 -21.0578 2.86126 -1.06944e-006 23.6401 1.55675e-005 -3.60563 -7.33664 -11.7556 -2.03475 19.9649 -8.76775 -0.000342228 32.4542 5.09333e-006 -7.46677 -14.7987 10.9238 -2.24657 0.987069 0.493966 1.63065 6.54928 -5.9723 2.69008 -3.04145 1.59355 -3.14743 17.5223 5.81152 2.40707 -6.68887 10.3439 88.4768 25.0553 -19.1894 2.96132e-005 6.53353e-007 5.74704 4.61075 19.7369 -8.72573 5.55314 -19.0849 -3.98956 -80.2859 24.628 -0.637109 -1.00875e-005 -3.07814e-006 -20.0602 6.20514 17.9935 -12.6 
16.7795 102.525 359.984 0.526853 -8.52439 4.43302 4.50311 -16.9895 3.5457 -1.65543e-005 26.3287 1.59117e-005 -4.52805 -8.2525 -11.3797 -0.959081 16.9547 -8.86029 -6.12538e-005 41.3533 5.72551e-006 -7.26929 -12.6294 13.1129 -1.72232 1.09983 1.00358 1.63767 7.01328 -5.44114 2.48857 -2.69506 1.27263 -2.66824 17.6455 5.20596 2.84919 -6.89842 11.0776 87.5406 25.1434 -17.6262 2.96013e-005 6.52043e-007 6.79322 4.62411 19.6139 -8.39169 4.88129 -18.0178 -4.05212 -82.1481 25.1825 1.86585 -9.88398e-006 -3.14501e-006 -16.3133 5.49749 18.4211 -11.8932 
16.3675 103.369 366.606 0.128889 -10.0426 2.89488 5.72188 -11.8617 3.43131 -3.07933e-005 27.1449 1.60263e-005 -5.20698 -9.76889 -11.0378 -1.28434 11.1684 -8.17585 0.0150209 48.7485 6.51817e-006 -7.20005 -10.4246 15.2966 -1.53605 1.89008 1.92172 1.69822 7.75292 -4.86291 2.29027 -2.07896 1.02695 -2.18918 18.0559 4.64179 3.42106 -7.61498 11.7715 86.1804 25.2379 -15.4913 2.95876e-005 6.50265e-007 7.99845 4.27304 19.4782 -7.82374 4.20372 -17.2423 -4.24814 -84.1384 25.6598 4.46564 -9.67766e-006 -3.19818e-006 -12.5875 4.54613 18.84 -11.1075 
